<?xml version="1.0" encoding="utf-8"?>
<!-- Generator: Adobe Illustrator 25.0.0, SVG Export Plug-In . SVG Version: 6.00 Build 0)  -->
<svg version="1.1" id="Calque_1" xmlns="http://www.w3.org/2000/svg" xmlns:xlink="http://www.w3.org/1999/xlink" x="0px" y="0px"
	 viewBox="0 0 456 456" style="enable-background:new 0 0 456 456;" xml:space="preserve">
<style type="text/css">
	.st0{fill:url(#SVGID_1_);}
	.st1{fill:none;stroke:#FEFEFE;stroke-width:17;stroke-linecap:square;stroke-linejoin:round;}
	.st2{fill:none;stroke:#AEAEAE;stroke-width:12;stroke-linecap:square;}
	.st3{fill:#EAEAEA;}
	.st4{fill:#FEFEFE;}
</style>
<g id="icon-background">
	
		<linearGradient id="SVGID_1_" gradientUnits="userSpaceOnUse" x1="64.9825" y1="418.8138" x2="392.9825" y2="22.8138" gradientTransform="matrix(1 0 0 -1 0 450)">
		<stop  offset="0" style="stop-color:#171A20"/>
		<stop  offset="0.5" style="stop-color:#0D1016"/>
		<stop  offset="1" style="stop-color:#07090D"/>
	</linearGradient>
	<path class="st0" d="M104,0h248c57.4,0,104,46.6,104,104v248c0,57.4-46.6,104-104,104H104C46.6,456,0,409.4,0,352V104
		C0,46.6,46.6,0,104,0z"/>
</g>
<g id="folder-outline">
	<path class="st1" d="M87,210.4v-88.9c0-18.9,15.5-34.2,34.6-34.2h61.8c11.3,0,21.8,5.4,28.3,14.5l29.9,41.8
		c6.5,9.1,17.1,14.5,28.3,14.5h70.5c19.1,0,34.6,15.3,34.6,34.2v4.2"/>
	<path class="st1" d="M87,301.5v25c0,18.9,15.5,34.2,34.6,34.2h218.8c19.1,0,34.6-15.3,34.6-34.2v-10.3"/>
</g>
<g id="project-timeline">
	<path class="st2" d="M63.9,255.9h277"/>
	<circle class="st3" cx="64.8" cy="255.9" r="22.8"/>
	<circle class="st3" cx="127.6" cy="255.9" r="23.7"/>
	<circle class="st3" cx="199.6" cy="255.9" r="23.7"/>
	<circle class="st3" cx="271.5" cy="255.9" r="23.7"/>
</g>
<g id="final-ring">
	<circle class="st4" cx="374.4" cy="255.9" r="45.5"/>
</g>
</svg>
